# xmcd
#
# Track frame offsets:
# 150
# 23439
# 35401
# 48268
# 59966
# 78004
# 91338
# 105568
# 124166
# 140186
# 148857
# 156623
# 167527
# 180853
# 196747
# 212711
# 227381
# 241909
# 247777
# 259984
# 267873
# 282987
# 292038
# 299292
#
# Disc length: 4122 seconds
#
# Revision: 0
# Processed by: cddbd v1.5PL3 Copyright (c) Steve Scherf et al.
# Submitted via: Audion 3.0.2 (http://www.panic.com/audion/)
#
DISCID=5a101818
DTITLE=Hollywood Musical - 1935-1939
DYEAR=1900
DGENRE=
TTITLE0=Cheek to cheek
TTITLE1=Oh! I didn't know you'd get that way
TTITLE2=Lulu's back in town
TTITLE3=Animal crackers in my soup
TTITLE4=Lullaby of Broadway
TTITLE5=Cosi Cosa
TTITLE6=I get a kick out of you
TTITLE7=Old man river
TTITLE8=Indian love call
TTITLE9=The way you look tonight
TTITLE10=Sing baby sing
TTITLE11=The balboa
TTITLE12=Easy to love
TTITLE13=will you remember
TTITLE14=This year's kisses
TTITLE15=Let's call the whole thing off
TTITLE16=Sweet Leilani
TTITLE17=Alexander's Ragtime Band
TTITLE18=Swing me an old-fashioned song
TTITLE19=Change partners
TTITLE20=Lydia the tattooed lady
TTITLE21=I'm just wild about Harry
TTITLE22=Rose of Washington Square
TTITLE23=Over the rainbow
EXTD=
EXTT0=
EXTT1=
EXTT2=
EXTT3=
EXTT4=
EXTT5=
EXTT6=
EXTT7=
EXTT8=
EXTT9=
EXTT10=
EXTT11=
EXTT12=
EXTT13=
EXTT14=
EXTT15=
EXTT16=
EXTT17=
EXTT18=
EXTT19=
EXTT20=
EXTT21=
EXTT22=
EXTT23=
PLAYORDER=
